<svg xmlns="http://www.w3.org/2000/svg" xmlns:xlink="http://www.w3.org/1999/xlink" width="24" height="24" viewBox="0 0 24 24"><defs><clipPath id="a"><rect width="24" height="24" fill="none"/></clipPath></defs><g clip-path="url(#a)"><rect width="24" height="24" fill="rgba(52,151,253,0)"/><path d="M11.711,10.375a2.91,2.91,0,0,1,0,1.511l4.4,3.3A2.905,2.905,0,1,1,15.23,16.6l-4.4-3.3a2.905,2.905,0,1,1,0-4.346l4.4-3.3a2.905,2.905,0,1,1,.877,1.417l-4.4,3.3Zm6.325-4.225A1.245,1.245,0,1,0,16.791,4.9,1.245,1.245,0,0,0,18.037,6.149Zm0,12.452a1.245,1.245,0,1,0-1.245-1.245A1.245,1.245,0,0,0,18.037,18.6ZM8.905,12.375A1.245,1.245,0,1,0,7.66,11.13,1.245,1.245,0,0,0,8.905,12.375Z" transform="translate(-1.421 0.955)" fill="#fff"/></g></svg>