<svg xmlns="http://www.w3.org/2000/svg" xmlns:xlink="http://www.w3.org/1999/xlink" width="24" height="24" viewBox="0 0 24 24"><defs><clipPath id="a"><rect width="24" height="24" fill="none"/></clipPath></defs><g clip-path="url(#a)"><rect width="24" height="24" fill="#fff" opacity="0"/><path d="M666.9-4781.5a2.987,2.987,0,0,1,.377-1.457l-4.026-2.345a3,3,0,0,1-2.751,1.8,3,3,0,0,1-3-3,3,3,0,0,1,3-3,3,3,0,0,1,2.751,1.8l4.024-2.349a2.986,2.986,0,0,1-.375-1.455,3,3,0,0,1,3-3,3,3,0,0,1,3,3,3,3,0,0,1-3,3,3,3,0,0,1-2.624-1.546l-4.024,2.349a2.989,2.989,0,0,1,.248,1.2,2.988,2.988,0,0,1-.249,1.2l4.026,2.345a3,3,0,0,1,2.623-1.543,3,3,0,0,1,3,3,3,3,0,0,1-3,3A3,3,0,0,1,666.9-4781.5Z" transform="translate(-653.5 4798.5)" fill="none" stroke="#fff" stroke-linecap="round" stroke-linejoin="round" stroke-width="1.5"/></g></svg>