<svg xmlns="http://www.w3.org/2000/svg" xmlns:xlink="http://www.w3.org/1999/xlink" width="24" height="24" viewBox="0 0 24 24"><defs><clipPath id="a"><rect width="24" height="24" fill="none"/></clipPath><clipPath id="b"><path d="M9.691,3.582A3.645,3.645,0,0,1,12.364,2.5,4.285,4.285,0,0,1,16.5,7.082a5.915,5.915,0,0,1-2.227,4.327,16.16,16.16,0,0,1-1.336,1.209,2.768,2.768,0,0,1-.445.382,5.565,5.565,0,0,1-.636.509,11.706,11.706,0,0,1-1.4,1.082c-.191.127-.318.255-.445.318-.064.064-.127.127-.191.127a.809.809,0,0,1-.764,0c-.064,0-.064-.064-.191-.127-.127-.127-.318-.191-.445-.318-.445-.382-.955-.7-1.4-1.082A4.458,4.458,0,0,0,6.382,13c-.127-.127-.318-.255-.445-.382.064,0-.891-.891-1.209-1.209C3.264,9.945,2.5,8.673,2.5,7.082A4.285,4.285,0,0,1,6.636,2.5,3.914,3.914,0,0,1,9.309,3.582a.878.878,0,0,1,.191.255.878.878,0,0,0,.191-.255Zm.064,10.055c.445-.318.891-.7,1.336-1.018.191-.191.382-.318.573-.509l.382-.382c.064-.064,1.018-.891,1.273-1.209a5.028,5.028,0,0,0,1.845-3.436A3.017,3.017,0,0,0,12.3,3.773a2.179,2.179,0,0,0-1.718.764,3.187,3.187,0,0,0-.445.509.788.788,0,0,1-.127.191.62.62,0,0,1-1.145,0,.915.915,0,0,0-.127-.191,1.715,1.715,0,0,0-.445-.509,1.969,1.969,0,0,0-1.655-.764A3.017,3.017,0,0,0,3.773,7.082a5.028,5.028,0,0,0,1.845,3.436c.318.318,1.209,1.145,1.273,1.209l.382.382a4.117,4.117,0,0,1,.573.509c.445.382.891.7,1.336,1.018.064.064.191.127.255.191a1.391,1.391,0,0,0,.318-.191Z" transform="translate(-2.5 -2.5)"/></clipPath></defs><g clip-path="url(#a)"><rect width="24" height="24" fill="none"/><g transform="translate(5 6)" opacity="0.8" clip-path="url(#b)"><rect width="17.182" height="15.909" transform="translate(-1.591 -1.591)" fill="#fff"/></g></g></svg>