<svg xmlns="http://www.w3.org/2000/svg" width="24" height="24" viewBox="0 0 24 24"><rect width="24" height="24" fill="none"/><rect width="16" height="18" rx="2" transform="translate(4.5 3.5)" fill="none" stroke="#757575" stroke-linecap="square" stroke-linejoin="round" stroke-width="2"/><g transform="translate(0 0)"><path d="M5.773,8.833a.779.779,0,1,1,0-1.556H13.4a.779.779,0,1,1,0,1.556Z" transform="translate(3.045 0.722)" fill="#757575"/><path d="M5.773,8.833a.779.779,0,1,1,0-1.556H13.4a.779.779,0,1,1,0,1.556Z" transform="translate(3.045 4.722)" fill="#757575"/><path d="M5.773,8.833a.779.779,0,1,1,0-1.556H10.4a.779.779,0,1,1,0,1.556Z" transform="translate(3.045 8.722)" fill="#757575"/></g></svg>