<svg xmlns="http://www.w3.org/2000/svg" xmlns:xlink="http://www.w3.org/1999/xlink" width="24" height="24" viewBox="0 0 24 24"><defs><clipPath id="a"><rect width="24" height="24" fill="none"/></clipPath></defs><g clip-path="url(#a)"><rect width="24" height="24" fill="none"/><path d="M3.318,4.556A.755.755,0,0,1,2.5,3.778.755.755,0,0,1,3.318,3H19.682a.755.755,0,0,1,.818.778.755.755,0,0,1-.818.778ZM5.773,8.833a.779.779,0,1,1,0-1.556H17.227a.779.779,0,1,1,0,1.556Zm2.455,4.278a.779.779,0,1,1,0-1.556h6.545a.779.779,0,1,1,0,1.556ZM10.682,17a.779.779,0,1,1,0-1.556h1.636a.779.779,0,1,1,0,1.556Z" transform="translate(0.5 2)" fill="#fff"/></g></svg>