<svg xmlns="http://www.w3.org/2000/svg" xmlns:xlink="http://www.w3.org/1999/xlink" width="24" height="24" viewBox="0 0 24 24"><defs><clipPath id="a"><rect width="24" height="24" fill="none"/></clipPath></defs><g clip-path="url(#a)"><rect width="24" height="24" fill="none"/><path d="M11.658,13.282a2.27,2.27,0,0,1,.082.738,4.518,4.518,0,0,1-.082.738L16,18a2.849,2.849,0,1,1-.984,2.132,4.518,4.518,0,0,1,.082-.738l-4.346-3.239a2.777,2.777,0,0,1-1.886.738,2.87,2.87,0,1,1,0-5.74,2.777,2.777,0,0,1,1.886.738L15.1,8.649a5.6,5.6,0,0,1-.082-.779,2.87,2.87,0,1,1,2.87,2.87A2.777,2.777,0,0,1,16,10l-4.346,3.28ZM17.891,9.1a1.23,1.23,0,1,0-1.23-1.23,1.208,1.208,0,0,0,1.23,1.23Zm0,12.3a1.23,1.23,0,1,0-1.23-1.23,1.208,1.208,0,0,0,1.23,1.23ZM8.87,15.251a1.23,1.23,0,1,0-1.23-1.23,1.208,1.208,0,0,0,1.23,1.23Z" transform="translate(-1 -2)" fill="#757575"/></g></svg>