<svg xmlns="http://www.w3.org/2000/svg" xmlns:xlink="http://www.w3.org/1999/xlink" width="24" height="24" viewBox="0 0 24 24"><defs><clipPath id="a"><rect width="24" height="24" fill="none"/></clipPath></defs><g clip-path="url(#a)"><rect width="24" height="24" fill="none"/><path d="M5.327,20.791a1.469,1.469,0,0,0,1.882,1.882l2.7-.655A8.751,8.751,0,0,0,14,23a8.943,8.943,0,1,0-8.018-4.868l-.655,2.659Zm2.332-2.577a.818.818,0,0,0-.082-.614A7.366,7.366,0,1,1,10.4,20.423a.793.793,0,0,0-.614-.082l-2.864.7.736-2.823Zm10.023-5.032a.818.818,0,0,0,0-1.636H10.318a.818.818,0,1,0,0,1.636Zm0,3.273a.818.818,0,0,0,0-1.636H12.773a.818.818,0,0,0,0,1.636Z" transform="translate(-2 -2)" fill="#757575"/></g></svg>